<svg xmlns="http://www.w3.org/2000/svg" version="1.1" xmlns:xlink="http://www.w3.org/1999/xlink" xmlns:svgjs="http://svgjs.dev/svgjs" id="BgenPttrnSvgRootPreview" width="100%" height="100%"><defs><pattern x="0" y="0" width="1" height="1" patternUnits="userSpaceOnUse" id="BgenPttrnLayer1"><g id="PatternRootContent1"><g id="BgenPttrnLayer1background"><rect width="1" height="1" id="BgenPttrnBackground1" class="color_1 fill_color_1" fill="#161616"></rect></g></g></pattern><pattern x="0" y="0" width="80" height="80" patternUnits="userSpaceOnUse" id="BgenPttrnLayer2" patternTransform="matrix(1,0,0,1,0,0)"><g id="PatternRootContent2"><g id="BgenPttrnLayer2Element2"><use xlink:href="#BgenPttrnElement2" x="14.999996185302734" y="12.584999084472656" transform="translate(40, 20) scale(1) translate(-40, -20) rotate(0, 40, 20)"></use><use xlink:href="#BgenPttrnElement2" x="54.999996185302734" y="52.584999084472656" transform="translate(80, 60) scale(1) translate(-80, -60) rotate(0, 80, 60)"></use><use xlink:href="#BgenPttrnElement2" x="-25.000003814697266" y="52.584999084472656" transform="translate(0, 60) scale(1) translate(0, -60) rotate(0, 0, 60)"></use></g></g></pattern><symbol id="BgenPttrnElement2"><g class="color_3 fill_color_3" fill="#292929"><path d="M3.415,9.872019290924072e-7l9.17,9.17l9.17,-9.17L24.585,2.830000877380371l-12,12l-12,-12Z" transform="matrix(1,0,0,1,0,0)"></path><path d="M29.415,9.872019290924072e-7l9.17,9.17l9.17,-9.17L50.585,2.830000877380371l-12,12l-12,-12Z" transform="matrix(1,0,0,1,0,0)"></path></g></symbol></defs><rect width="100%" height="100%" id="BgenPttrnRctLayer1" fill="url(&quot;#BgenPttrnLayer1&quot;)"></rect><rect width="100%" height="100%" id="BgenPttrnRctLayer2" fill="url(&quot;#BgenPttrnLayer2&quot;)"></rect></svg>